<?xml version="1.0" encoding="UTF-8"?>
<svg id="Camada_1" xmlns="http://www.w3.org/2000/svg" version="1.1" viewBox="0 0 2000 2000">
  <!-- Generator: Adobe Illustrator 30.0.0, SVG Export Plug-In . SVG Version: 2.1.1 Build 123)  -->
  <defs>
    <style>
      .st0 {
        fill: #2E2A27;
      }
      @media (prefers-color-scheme: dark) {
        .st0 {
          fill: #F8F6F1;
        }
      }
    </style>
  </defs>
  <g id="g2220">
    <path id="path2222" class="st0" d="M933.48,1980.73c-4.37-4.37-7.95-163.63-7.95-353.9,0-269.46-3.1-345.87-14.02-345.61-7.71.18-130.12,101.16-272.02,224.4-141.9,123.23-263.87,224.06-271.04,224.06-18.11,0-117.8-112.72-112.84-127.6,2.22-6.66,56.93-50.1,121.57-96.53,156.16-112.16,490.26-369.43,499.79-384.84,8.9-14.41-18.56-39.49-318.88-291.28-137.61-115.37-227.2-198.29-227.2-210.28,0-10.89,19.81-41.9,44.01-68.92,42.45-47.38,45.01-48.53,71.97-32.3,15.38,9.26,127.44,108.97,249.03,221.59,121.59,112.62,225.53,204.76,230.97,204.76,12.71,0,12.14-319.65-1.11-625.06-8.25-190.13-14.07-243.68-28.93-266.36-16.58-25.31-16.72-29.11-1.29-35.03,9.52-3.65,107.26-4.97,217.2-2.92,188.83,3.52,202.65,5.28,249.88,31.77,127.6,71.59,168.78,259.13,81.26,370.06-45.29,57.4-156.54,109.15-271.5,126.28l-95.37,14.21-3.06,204.74c-1.68,112.61,1.21,204.74,6.42,204.74s126.88-98.45,270.38-218.79c143.5-120.33,265.17-218.79,270.37-218.79,10.62,0,123.47,123.71,123.47,135.35,0,4.1-59.66,47.57-132.58,96.6-219.69,147.7-495.73,352.53-495.73,367.85,0,14.08,358.83,299.55,529.57,421.32,47.51,33.88,86.64,68.63,86.95,77.22.78,21.4-98.4,135.85-117.73,135.85-8.57,0-59.93-46.03-114.14-102.29-118.12-122.61-380.53-361.88-402.41-366.93-12.98-3-16.07,54.02-18.55,342.21l-2.97,345.8-67.78,3.28c-37.28,1.8-71.36-.3-75.73-4.67ZM1238.72,439.88c95.84-48.9,132.48-138.71,93-227.97-31.04-70.16-80.16-101.68-167.07-107.22-67.77-4.31-70.81-3.36-81.82,25.59-12.25,32.21-15.96,284.26-4.62,313.8,9.96,25.95,106.36,23.43,160.52-4.2Z"/>
  </g>
</svg>
